<?xml version="1.0" encoding="utf-8" ?><svg xmlns="http://www.w3.org/2000/svg" xmlns:xlink="http://www.w3.org/1999/xlink" width="1563" height="1563" viewBox="0 0 1563 1563"><defs><linearGradient id="gradient_0" gradientUnits="userSpaceOnUse" x1="1295.1959" y1="630.06116" x2="791.3606" y2="730.86353"><stop offset="0" stop-color="#0A0A0A"/><stop offset="1" stop-color="#363535"/></linearGradient></defs><path fill="url(#gradient_0)" d="M1019.32 377.574C1020.03 379.219 1021.7 390.794 1022.06 393.161C1024.15 407.008 1027 420.655 1028.15 434.62C1029.13 446.624 1027.13 481.368 1037.08 488.642C1040.22 486.301 1042.37 478.338 1043.66 474.503C1044.95 487.949 1045.05 498.441 1044.77 511.908L1040.21 516.935L1040.23 563.215L1044.52 568.117C1044.47 581.05 1044.63 593.983 1045.01 606.91C1055.02 607.111 1065.46 606.909 1075.51 606.842C1074.78 573.234 1074.98 572.355 1097.45 547.605C1097.46 542.575 1097.18 527.384 1100.56 523.588C1103.68 526.346 1104.11 542.663 1104.42 547.2C1111.97 558.089 1125.39 567.59 1126.65 581.137C1127.51 590.457 1126.87 602.572 1126.69 612.098C1132.8 612.458 1138.91 612.705 1145.03 612.839C1149.92 629.79 1151.69 647.254 1152.89 664.764L1179.9 664.754C1180.37 676.683 1179.99 690.125 1179.89 702.17C1199.49 720.174 1208.57 718.459 1234.05 718.336C1234.5 726.914 1234.51 735.725 1234.62 744.33C1253.26 762.483 1281.78 782.254 1302.65 798.137C1313.6 806.467 1326.21 814.316 1336.3 823.739C1336.28 861.032 1336.17 890.253 1330.85 927.246C1292.97 928.066 1251.97 927.23 1213.84 927.187L1014.98 926.791C989.123 927.087 963.262 927.239 937.401 927.248C925.574 927.252 907.933 927.638 896.435 926.633C895.37 923.888 894.284 921.15 893.175 918.421C874.995 873.783 853.375 857.25 810.564 839.173C818.182 829.063 830.398 815.636 838.976 806.289C866.329 776.524 896.262 749.238 928.424 724.748C945.443 711.875 962.864 700.321 980.361 688.135C980.724 680.872 980.648 672.628 980.746 665.287L993.111 664.849C992.689 635.722 992.165 606.252 992.9 577.117C993.068 570.469 996.074 561.88 996.427 555.262C997.083 542.949 996.78 529.774 996.714 517.41L992.763 513.558C992.492 499.868 992.688 489.217 993.8 475.598L999.737 490.078C1011.92 468.037 1005.97 470.488 1007.75 447.372C1009.59 423.817 1013.46 400.464 1019.32 377.574Z"/><defs><linearGradient id="gradient_1" gradientUnits="userSpaceOnUse" x1="1059.6112" y1="1192.8167" x2="853.88074" y2="767.30658"><stop offset="0" stop-color="#0A0A0A"/><stop offset="1" stop-color="#363535"/></linearGradient></defs><path fill="url(#gradient_1)" d="M684.536 854.283C689.751 853.906 700.067 857.265 704.889 859.271C723.348 867.631 749.017 870.504 768.371 862.962C793.915 853.009 803.177 851.564 828.886 865.709C860.73 883.23 874.863 913.345 884.482 947.033C938.315 945.56 995.941 946.376 1050.08 946.333C1142.78 946.071 1235.48 946.306 1328.17 947.041C1322.61 988.111 1301.98 1051.43 1282.58 1088.13C1281.99 1078.57 1281.43 1068.82 1281.6 1059.3C1281.91 1042.06 1284.36 1025.66 1277.36 1009.28C1270.1 992.256 1257.02 983.469 1238.6 983.024C1217.43 982.513 1200.9 995.716 1196.08 1016.06C1192.65 1030.59 1194.19 1045.89 1194.25 1060.71L1194.19 1110.31L1138.01 1110.29L1137.91 1091.54C1138.04 1066.32 1143.24 1016.76 1126.77 997.97C1118.81 988.912 1107.5 983.493 1095.45 982.966C1083.21 982.363 1071.1 986.42 1062.17 994.958C1056.35 1000.5 1052.27 1007.61 1050.39 1015.42C1047.85 1025.69 1048.64 1044.37 1048.67 1055.66C1048.8 1073.85 1048.8 1092.04 1048.67 1110.23C1030.48 1109.74 1010.74 1110.05 992.43 1109.99C991.823 1092.87 991.572 1070.06 992.359 1052.3C993.831 1019.11 991.089 985.318 949.04 981.911C929.088 980.294 910.469 995.319 906.217 1015.1C903.199 1029.14 904.81 1043.86 904.931 1058.57L904.923 1110.22L632.729 1110.41L632.787 1015.5C632.782 990.794 634.055 962.81 628.759 938.988C625.782 925.597 617.831 909.711 611.968 897.177C612.837 895.888 613.729 894.614 614.643 893.356C631.237 870.632 657.292 858.476 684.536 854.283ZM774.462 915.204C766.025 917.438 759.345 920.175 754.578 928.21C750.675 934.814 749.654 942.732 751.755 950.11C756.135 965.347 773.655 978.529 784.831 989.393C788.787 993.239 796.929 1001.12 800.884 1004.34L820.709 984.799C829.371 977.102 838.445 969.576 845.265 960.111C852.826 949.617 853.52 934.386 844.716 924.352C839.735 918.734 832.669 915.403 825.166 915.135C814.15 914.737 807.405 920.336 800.517 927.964C794.738 921.579 789.521 915.603 780.124 915.139C778.237 915.05 776.347 915.072 774.462 915.204Z"/><path fill="#0A0A0A" d="M393.612 848.988C398.665 850.124 409.101 854.942 415.357 856.606C444.017 864.233 463.81 859.879 490.44 849.506C511.409 869.878 514.533 897.39 514.366 925.006C509.764 928.558 505.988 931.336 502.119 935.689C491.166 948.015 491.936 965.751 505.22 976.262C511.533 981.302 519.635 983.536 527.64 982.443C544.213 980.097 553.079 964.977 550.582 948.89C548.831 937.609 539.402 931.517 530.718 925.462C530.464 905.619 530.273 890.442 522.058 871.794C519.001 864.855 515.43 858.678 512.652 851.745C538.902 855.197 563.289 867.183 582.058 885.857C596.514 900.517 606.799 918.767 611.854 938.725C617.724 961.534 616.181 996.891 616.163 1021.01L616.155 1110.28C594.227 1109.39 568.536 1110.2 546.294 1110.22L411.738 1110.28L343.869 1110.5C328.736 1110.54 311.706 1110.84 296.711 1109.85C287.937 1096.89 272.4 1067.74 270.695 1052.81C269.435 1041.79 270.268 1023.28 270.142 1011.45C269.682 968.202 267.36 933.228 295.761 896.727C314.306 872.894 342.018 855.66 372.291 851.938C355.399 885.091 354.436 886.921 353.586 923.902C350.756 924.838 347.963 925.885 345.215 927.041C322.208 936.958 319.877 959.522 321.644 981.477C322.069 986.75 322.634 991.667 328.197 993.422C345.987 990.034 329.746 957.209 342.098 946.361C353.915 935.984 369.075 934.655 381.157 945.709C389.823 953.637 387.638 966.407 388.125 976.757C387.821 979.861 389.178 991.167 392.767 992.579C405.798 997.704 403.855 970.238 403.772 967.339C403.019 941.301 391.665 931.244 369.305 922.729C369.113 893.008 375.167 872.203 393.612 848.988Z"/><defs><linearGradient id="gradient_2" gradientUnits="userSpaceOnUse" x1="480.53302" y1="407.15744" x2="677.28809" y2="641.39667"><stop offset="0" stop-color="#0A0A0A"/><stop offset="1" stop-color="#363535"/></linearGradient></defs><path fill="url(#gradient_2)" d="M527.787 368.151C541.493 367.386 558.821 367.91 572.773 367.818C592.904 367.686 614.287 367.386 634.285 368.746C638.661 371.898 639.167 372.602 642.44 376.872C644.543 401.733 642.907 437.698 643.294 464.174C668.476 464.38 693.781 463.519 718.884 464.447C731.81 464.716 734.988 474.163 734.858 485.601C734.524 514.964 735.641 545.167 734.111 574.428C733.295 590.046 702.911 586.402 691.318 586.364L643.291 586.231C643.141 613.047 644.437 647.337 642.296 673.317C638.239 677.308 636.239 679.567 630.58 680.651L563.511 680.783C552.858 680.811 536.094 681.297 525.999 680.167C522.911 677.798 521.606 676.388 518.919 673.531C516.722 664.98 517.391 645.893 517.404 636.266L517.489 586.805C500.579 586.482 439.504 590.554 429.15 581.402C425.028 577.76 424.654 567.668 424.459 562.348C423.994 549.61 424.669 536.797 424.613 524.047C424.543 508.306 422.485 490.292 425.585 474.863C426.058 472.511 426.933 470.905 428.608 469.208C430.887 466.899 433.471 465.252 436.664 464.565C447.064 462.326 459.486 463.764 470.125 463.867C485.872 464.043 501.62 464.066 517.368 463.934C517.216 438.891 514.22 399.191 519.252 374.334C519.834 371.459 525.176 369.234 527.787 368.151Z"/><path fill="#0A0A0A" d="M442.124 666.646C489.502 666.137 528.366 704.046 529.035 751.421C529.704 798.797 491.926 837.788 444.554 838.617C396.954 839.45 357.735 801.453 357.063 753.851C356.39 706.248 394.52 667.158 442.124 666.646Z"/><path fill="#0A0A0A" d="M737.492 675.801C783.758 672.846 823.667 707.941 826.652 754.205C829.636 800.469 794.567 840.401 748.305 843.415C702.001 846.432 662.025 811.324 659.038 765.018C656.051 718.711 691.184 678.759 737.492 675.801Z"/><path fill="#0A0A0A" d="M639.993 1153.49C689.234 1147.44 724.801 1173.1 772.205 1177.53C818.617 1181.87 853.596 1157.54 897.939 1153.48C913.741 1152.03 940.745 1155.31 956.33 1158.76C1009.29 1178.61 1047.72 1182.37 1101.86 1164.43C1068.32 1205.97 1021.89 1211.12 973.815 1196.4C959.401 1191.98 943.706 1187.3 928.854 1185.43C874.435 1178.25 846.119 1206.46 793.243 1208.72C769.194 1209.76 751.469 1207.53 728.445 1200.62C704.246 1192.38 685.605 1185.99 659.929 1184.16C617.604 1181.14 585.898 1203.51 544.059 1202.86C508.515 1202.31 488.526 1187.93 464.704 1163.31C503.12 1174.86 538.27 1181.32 577.282 1168.18C599.147 1160.81 616.771 1155.28 639.993 1153.49Z"/><path fill="#0A0A0A" d="M639.265 1226.75C644.375 1226.02 651.693 1226.27 656.873 1226.22C680.342 1225.99 700.932 1231.45 722.805 1239.31C740.515 1245.68 759.01 1248.84 777.839 1250.55C820.846 1254.47 857.362 1227.81 899.521 1226.54C908.403 1226.27 931.755 1227.3 940.008 1229.1C975.655 1236.85 993.279 1250.27 1031.28 1246.18C1028.82 1248.06 1026.31 1249.87 1023.76 1251.62C994.845 1271.17 963.533 1263.72 931.617 1257.68C906.418 1256.52 884.833 1257.89 860.506 1265.83C846.765 1270.32 831.708 1276.59 817.586 1278.92C789.068 1283.62 756.083 1282.22 728.496 1273.33C706.593 1266.28 686.326 1257.82 663.066 1256.5C632.399 1254.77 602.448 1266.95 572.01 1262.3C557.515 1260.08 547.8 1253.52 536.147 1245.37C576.986 1249.28 599.231 1230.68 639.265 1226.75Z"/><path fill="#0A0A0A" d="M518.914 942.984C525.245 940.712 532.215 944.023 534.452 950.366C536.69 956.708 533.34 963.66 526.985 965.863C520.68 968.048 513.793 964.73 511.573 958.437C509.353 952.143 512.633 945.238 518.914 942.984Z"/><defs><linearGradient id="gradient_3" gradientUnits="userSpaceOnUse" x1="58.75703" y1="795.67352" x2="420.22986" y2="796.51355"><stop offset="0" stop-color="#966F1E"/><stop offset="1" stop-color="#CFA647"/></linearGradient></defs><path fill="url(#gradient_3)" d="M356.083 1402.62C128.853 1239.68 21.7034 946.219 68.7114 673.693C103.419 472.479 206.921 309.102 372.773 190.87C383.507 208.037 378.103 224.799 378.442 244.606C375.869 248.046 373.369 250.07 370.194 252.893C372.257 264.097 365.966 288.01 367.066 300.744C367.465 305.36 363.176 314.557 365.766 319.045C357.669 326.902 349.021 334.565 341.121 342.496C324.651 359.281 308.977 376.829 294.151 395.083C203.772 507.111 153.633 646.244 151.774 790.172C148.752 926.503 188.87 1060.31 266.403 1172.48C285.582 1200.4 306.975 1226.73 330.374 1251.22C343.797 1265 367.269 1287.75 382.616 1300.29C390.333 1306.48 398.135 1312.56 406.019 1318.53C407.493 1319.65 415.29 1325.4 416.213 1326.39C418.391 1332.28 422.06 1328.08 416.068 1334.75C416.618 1336.43 416.708 1336.46 416.665 1338.25C411.715 1339.5 405.597 1338.74 400.956 1339.85C391.922 1342.02 382.164 1339.82 373.518 1341.41C371.767 1336.27 374.052 1337.07 372.542 1335.83C369.583 1340.2 371.667 1346.78 371.411 1351.89C371.165 1356.77 367.28 1363.92 366.395 1368.48C365.115 1375.07 367.172 1380.14 364.558 1387.03C362.4 1392.71 358.007 1397.93 356.083 1402.62Z"/><defs><linearGradient id="gradient_4" gradientUnits="userSpaceOnUse" x1="1502.0881" y1="802.58276" x2="1107.1364" y2="800.60443"><stop offset="0" stop-color="#966F1E"/><stop offset="1" stop-color="#CFA647"/></linearGradient></defs><path fill="url(#gradient_4)" d="M1246.46 235.872C1273.01 257.287 1303.31 288.194 1325.39 313.92C1423.52 429.102 1484.36 571.358 1499.88 721.872C1515.04 864.481 1489.84 1008.48 1427.15 1137.47C1419.05 1153.98 1410.35 1170.19 1401.07 1186.07C1399.28 1189.14 1392.4 1200.88 1390.33 1203.47C1373.14 1196.71 1380.89 1184.97 1375.37 1180.8C1374.18 1185.01 1378.84 1193.94 1380.56 1197.95C1381.76 1200.74 1385.26 1202.67 1387.84 1204.23C1360.13 1249.94 1314.05 1306.58 1274.61 1343.29C1272.06 1343.48 1273.59 1340.92 1269.67 1341.89C1263.51 1343.41 1259.6 1345 1253.15 1345.66C1217.39 1349.33 1181.19 1354.69 1145.47 1358.36C1137.76 1359.15 1109.41 1363.72 1104.7 1361.78C1106.04 1359.73 1107.03 1359.19 1108.97 1357.75C1108.89 1356.29 1108.46 1354.34 1109.64 1353.46C1116.35 1348.51 1128.27 1340.7 1134.9 1336.38C1148.75 1327.35 1208.75 1281.34 1215.67 1268.45C1217.1 1265.9 1228.85 1254.48 1231.55 1251.74C1248.73 1234.3 1264.31 1215.5 1279.08 1195.97C1350.8 1101.52 1395.14 989.144 1407.23 871.167C1423.14 721.338 1386.58 570.627 1303.79 444.745C1290.52 424.649 1276.2 405.266 1260.9 386.676C1252.15 376.159 1242.5 366.16 1234.02 355.77C1235.18 356.29 1236.89 357.451 1238.34 358.168L1238.12 357.71L1239.74 356.4C1240.04 352.032 1237.84 344.456 1238.23 337.824C1239.83 310.339 1240.7 282.758 1242.91 255.316C1242.88 251.011 1244.68 246.525 1246.57 242.684C1248.53 238.669 1248.2 239.993 1246.46 235.872Z"/><path fill="#CFA647" d="M372.773 190.87C396.245 174.842 418.249 160.43 443.506 146.934C587.137 70.3015 752.514 44.6521 912.61 74.1778C1014.11 93.8389 1110.2 135.089 1194.36 195.132C1208.62 205.211 1233.98 223.893 1246.46 235.872C1248.2 239.993 1248.53 238.669 1246.57 242.684C1244.68 246.525 1242.88 251.011 1242.91 255.316C1240.7 282.758 1239.83 310.339 1238.23 337.824C1237.84 344.456 1240.04 352.032 1239.74 356.4L1238.12 357.71L1238.34 358.168C1236.89 357.451 1235.18 356.29 1234.02 355.77C1231.9 354.486 1226.28 348.456 1224.17 346.199C1204.21 324.914 1182.18 307.012 1159.17 289.068C1064.14 215.981 950.146 171.687 830.704 161.442C684.489 150.576 539.076 191.165 419.626 276.186C399.955 290.04 383.929 303.517 365.766 319.045C363.176 314.557 367.465 305.36 367.066 300.744C365.966 288.01 372.257 264.097 370.194 252.893C373.369 250.07 375.869 248.046 378.442 244.606C378.103 224.799 383.507 208.037 372.773 190.87Z"/><path fill="#CFA647" d="M1215.67 1268.45C1208.75 1281.34 1148.75 1327.35 1134.9 1336.38C1128.27 1340.7 1116.35 1348.51 1109.64 1353.46C1108.46 1354.34 1108.89 1356.29 1108.97 1357.75C1107.03 1359.19 1106.04 1359.73 1104.7 1361.78C1109.41 1363.72 1137.76 1359.15 1145.47 1358.36C1181.19 1354.69 1217.39 1349.33 1253.15 1345.66C1259.6 1345 1263.51 1343.41 1269.67 1341.89C1273.59 1340.92 1272.06 1343.48 1274.61 1343.29C1314.05 1306.58 1360.13 1249.94 1387.84 1204.23C1385.26 1202.67 1381.76 1200.74 1380.56 1197.95C1378.84 1193.94 1374.18 1185.01 1375.37 1180.8C1380.89 1184.97 1373.14 1196.71 1390.33 1203.47C1376.83 1225.83 1360.02 1249.02 1343.88 1269.5C1244.13 1395.75 1105.21 1485.22 949.006 1523.83C767.785 1567.85 576.521 1538.85 416.502 1443.07C397.387 1431.51 373.707 1416.41 356.083 1402.62C358.007 1397.93 362.4 1392.71 364.558 1387.03C367.172 1380.14 365.115 1375.07 366.395 1368.48C367.28 1363.92 371.165 1356.77 371.411 1351.89C371.667 1346.78 369.583 1340.2 372.542 1335.83C374.052 1337.07 371.767 1336.27 373.518 1341.41C382.164 1339.82 391.922 1342.02 400.956 1339.85C405.597 1338.74 411.715 1339.5 416.665 1338.25C416.708 1336.46 416.618 1336.43 416.068 1334.75C422.06 1328.08 418.391 1332.28 416.213 1326.39C510.887 1391.87 603.002 1431.48 718.918 1443.19C867.02 1457.91 1015.47 1418.82 1137.12 1333.07C1155.56 1320.04 1173.35 1306.11 1190.43 1291.33C1198.42 1284.39 1207.16 1275.33 1215.05 1268.94L1215.67 1268.45Z"/></svg>