<?xml version="1.0" encoding="utf-8" ?><svg xmlns="http://www.w3.org/2000/svg" xmlns:xlink="http://www.w3.org/1999/xlink" width="1145" height="1145" viewBox="0 0 1145 1145"><defs><linearGradient id="gradient_0" gradientUnits="userSpaceOnUse" x1="695.16071" y1="458.61911" x2="516.94714" y2="495.71869"><stop offset="0" stop-color="#0A0A0A"/><stop offset="1" stop-color="#363536"/></linearGradient></defs><path fill="url(#gradient_0)" transform="matrix(1.11816 0 0 1.11816 0 3.05176e-05)" d="M597.186 368.854C599.963 372.503 600.172 397.045 601.592 402.883C602.07 404.852 602.857 406.37 603.76 408.192L606.599 401.638C606.6 409.783 604.811 419.062 604.998 427.05C605.182 434.898 606.692 441.5 606.495 449.772L618.055 449.775C616.896 437.391 618.098 437.573 625.341 428.281C625.407 425.942 625.29 424.391 626.079 422.181L626.64 421.967C627.619 423.868 627.491 425.823 627.608 428.012C636.222 438.188 635.905 438.471 635.987 451.726L642.642 451.808C643.786 457.8 644.665 464.292 645.529 470.351C648.611 470.481 651.849 470.504 654.946 470.575C654.71 474.654 654.901 479.723 654.947 483.88C661.768 490.106 665.838 489.615 674.363 489.698C674.064 492.611 674.154 495.591 674.175 498.523C682.457 507.181 700.524 518.886 710.453 526.85C711.805 535.812 709.927 554.883 709.352 564.517L666.71 564.295L553.452 564.372C548.924 547.601 537.548 539.449 522.559 532.801C541.262 510.466 559.601 494.697 583.807 478.888C583.743 478.308 583.684 477.727 583.63 477.146C582.923 469.699 587.231 471.021 587.395 469.465C588.731 456.772 587.617 444.383 589.022 431.529C589.913 423.377 588.405 410.23 587.419 401.885L590.821 407.854C594.01 399.644 593.379 395.234 594.125 386.688C594.698 380.132 595.443 375.159 597.186 368.854Z"/><defs><linearGradient id="gradient_1" gradientUnits="userSpaceOnUse" x1="609.90442" y1="653.27417" x2="535.38763" y2="507.10635"><stop offset="0" stop-color="#0A0A0A"/><stop offset="1" stop-color="#363536"/></linearGradient></defs><path fill="url(#gradient_1)" transform="matrix(1.11816 0 0 1.11816 0 3.05176e-05)" d="M478.563 538.353C496.601 544.138 498.935 544.955 516.845 538.139C537.051 543.328 542.496 552.128 549.058 571.543L708.274 571.507C707.097 578.041 703.032 595.401 700.302 601.013C699.716 600.864 695.702 602.326 694.702 602.63C692.364 601.682 692.665 601.545 691.372 599.003C690.185 594.453 688.456 588.846 683.852 586.778C655.319 573.962 659.202 614.891 660.024 629.856L640.044 629.969C640.117 619.611 640.757 607.56 639.576 598.194C637.855 584.543 621.39 579.898 612.406 588.818C605.531 595.643 607.826 621.846 607.918 629.977C601.484 629.968 594.258 629.795 587.89 629.985C588.017 621.414 588.082 611.779 587.927 603.812C587.595 586.787 574.378 577.925 560.319 588.436C554.187 593.02 555.825 619.403 556.157 626.67C556.209 627.774 556.275 628.878 556.355 629.982C524.016 629.994 491.02 629.629 458.737 630.017L458.746 602.696C458.892 588.042 460.294 573.498 454.234 559.804C453.32 557.739 452.302 555.484 451.475 553.407C459.727 543.41 466.343 540.621 478.563 538.353ZM519.289 592.345C521.55 590.021 523.846 587.732 526.177 585.477C530.875 580.951 535.489 577.372 537.349 571.038C535.373 558.708 528.843 557.414 519.07 564.38C515.697 561.444 513.982 559.814 509.197 559.964C490.368 568.162 510.166 585.207 519.289 592.345Z"/><path fill="#0A0A0A" transform="matrix(1.11816 0 0 1.11816 0 3.05176e-05)" d="M373.268 536.307C388.657 542.083 392.54 541.629 408.006 536.562C415.177 543.964 416.526 553.855 416.443 563.645C411.41 567.968 405.212 574.528 411.92 581.061C415.73 585.022 425.872 585.215 428.492 579.754C432.071 572.294 427.841 567.829 422.706 563.83C422.07 553.31 420.835 546.396 415.437 536.993C463.857 547.859 452.651 591.733 453.029 629.924C429.092 630.285 404.283 629.982 380.288 629.983L338.383 629.973C329.177 613.44 328.59 611.3 329.022 592.327C329.371 576.997 328.742 564.803 339.423 552.025C346.112 544.023 354.961 538.881 365.281 537.846C360.009 548.048 359.053 551.266 358.809 562.798C352.279 565.132 349.599 568.548 347.497 575.199C346.314 578.944 345.468 586.516 350.668 587.613C353.703 584.743 351.91 575.64 355.356 571.309C359.906 565.592 364.824 567.737 369.515 572.194C370.663 575.839 371.198 588.129 374.579 588.337C377.887 585.253 377.354 576.283 375.765 572.359C373.607 567.028 369.769 565.038 364.853 562.914C364.411 552.833 366.725 544.121 373.268 536.307Z"/><defs><linearGradient id="gradient_2" gradientUnits="userSpaceOnUse" x1="404.92227" y1="377.7485" x2="473.83267" y2="461.95206"><stop offset="0" stop-color="#0A0A0A"/><stop offset="1" stop-color="#363536"/></linearGradient></defs><path fill="url(#gradient_2)" transform="matrix(1.11816 0 0 1.11816 0 3.05176e-05)" d="M443.481 363.754C448.524 363.67 455.42 362.893 459.751 365.034C464.151 370.033 462.57 390.918 462.481 398.606C469.066 398.466 486.867 397.534 492.598 399.714C496.607 403.764 496.464 435.04 493.376 440.049C491.474 443.134 466.911 442.044 462.088 441.969C462.072 450.753 462.136 459.548 462.417 468.329C462.611 474.413 458.783 475.991 453.348 476.029C446.817 476.076 440.27 476.043 433.732 476.014C417.234 476.559 417.46 476.652 417.584 459.49C417.626 453.79 417.41 448.032 417.833 442.268C405.9 441.683 399.01 443.754 385.924 440.899C385.535 439.228 385.22 437.541 384.982 435.842C384.058 429.217 383.017 404.922 386.906 399.798C391.133 397.368 411.47 398.457 417.651 398.545C417.471 391.873 416.336 369.62 419.4 365.105C422.862 363.379 438.506 363.83 443.481 363.754Z"/><path fill="#0A0A0A" transform="matrix(1.11816 0 0 1.11816 0 3.05176e-05)" d="M389.093 471.176C405.997 470.193 420.503 483.086 421.511 499.989C422.519 516.891 409.648 531.417 392.747 532.45C375.81 533.486 361.246 520.582 360.236 503.643C359.226 486.704 372.153 472.16 389.093 471.176Z"/><path fill="#363536" transform="matrix(1.11816 0 0 1.11816 0 3.05176e-05)" d="M493.859 474.761C504.512 473.137 515.217 477.361 521.891 485.823C528.565 494.285 530.178 505.68 526.116 515.662C522.054 525.644 512.942 532.674 502.256 534.071C485.977 536.2 471.018 524.826 468.716 508.57C466.415 492.315 477.628 477.235 493.859 474.761Z"/><path fill="#0A0A0A" transform="matrix(1.11816 0 0 1.11816 0 3.05176e-05)" d="M462.669 645.205C480.753 643.912 491.411 652.376 508.664 654.125C524.984 655.78 538.517 646.332 554.684 645.596C561.579 645.266 568.485 645.95 575.181 647.628C600.958 654.189 600.063 656.542 627.078 649.503C601.89 673.407 591.64 660.564 562.618 656.642C545.408 655.501 532.15 664.55 514.648 665.48C497.269 666.404 486.145 657.466 469.482 656.529C455.044 655.717 441.305 662.582 427.342 663.385C415.081 664.09 406.485 656.592 398.088 648.839C414.794 653.532 425.288 655.35 441.803 649.713C448.237 647.517 455.898 645.83 462.669 645.205Z"/><path fill="#0A0A0A" transform="matrix(1.11816 0 0 1.11816 0 3.05176e-05)" d="M461.163 671.673C479.525 669.229 492.634 678.971 510.401 680.261C526.782 681.451 540.918 671.509 556.632 671.549C574.796 671.596 582.607 679.296 601.874 679.041C586.786 687.398 581.186 685.272 564.488 682.681C550.198 681.786 538.897 686.73 525.392 690.162C505.884 696.125 486.887 683.359 468.763 682.28C449.587 681.138 443.681 690.724 424.243 678.53C439.759 678.663 446.501 673.674 461.163 671.673Z"/><path fill="#0A0A0A" transform="matrix(1.11816 0 0 1.11816 0 3.05176e-05)" d="M691.372 599.003C692.665 601.545 692.364 601.682 694.702 602.63C695.702 602.326 699.716 600.864 700.302 601.013C698.203 608.214 694.697 615.88 691.398 622.599C692.414 615.224 692.079 606.367 691.372 599.003Z"/><path fill="#0A0A0A" transform="matrix(1.11816 0 0 1.11816 0 3.05176e-05)" d="M418.748 569.795C421.136 569.386 423.404 570.989 423.815 573.376C424.227 575.764 422.627 578.033 420.24 578.448C417.849 578.863 415.574 577.259 415.162 574.868C414.75 572.476 416.356 570.204 418.748 569.795Z"/><defs><linearGradient id="gradient_3" gradientUnits="userSpaceOnUse" x1="253.49924" y1="522.24408" x2="383.49091" y2="522.25018"><stop offset="0" stop-color="#97701E"/><stop offset="1" stop-color="#CFA648"/></linearGradient></defs><path fill="url(#gradient_3)" transform="matrix(1.11816 0 0 1.11816 0 3.05176e-05)" d="M375.813 293.654C383.674 307.432 383.667 314.256 384.687 329.483C334.509 364.731 300.366 418.448 289.754 478.844C278.961 540.393 293.139 603.707 329.151 654.775C345.215 677.479 360.662 692.334 383.064 708.623C379.08 713.445 383.181 731.451 383.45 737.779C383.599 741.293 383.958 747.986 384.773 751.188C350.957 732.532 318.54 701.452 297.337 669.334C257.742 608.948 243.747 535.309 258.429 464.607C273.697 390.627 313.066 334.967 375.813 293.654Z"/><defs><linearGradient id="gradient_4" gradientUnits="userSpaceOnUse" x1="757.2984" y1="519.91992" x2="684.63025" y2="519.74109"><stop offset="0" stop-color="#97701E"/><stop offset="1" stop-color="#CFA648"/></linearGradient></defs><path fill="url(#gradient_4)" transform="matrix(1.11816 0 0 1.11816 0 3.05176e-05)" d="M688.043 324.482C715.518 350.191 737 381.63 750.967 416.569C753.284 422.344 757.302 432.961 758.738 438.904C775.332 484.746 774.519 559.906 757.35 605.634C742.1 649.486 721.445 682.958 687.809 715.333C684.853 705.188 686.181 695.329 687.12 685.058C687.624 679.541 688.889 671.111 685.656 666.38C713.667 630.966 730.791 593.102 736.095 547.862C742.579 493.028 729.61 437.657 699.45 391.405C694.796 384.254 688.753 376.658 683.441 369.919C689.2 365.551 685.422 343.795 685.911 336.701C686.302 331.046 686.307 330.202 688.043 324.482Z"/><path fill="#97701E" transform="matrix(1.11816 0 0 1.11816 0 3.05176e-05)" d="M758.738 438.904C775.332 484.746 774.519 559.906 757.35 605.634L755.555 605.128C756.871 602.869 755.361 580.804 755.365 575.939C755.399 535.421 755.013 494.873 756.561 454.38C756.751 449.384 756.613 444.244 757.395 439.308C758.094 438.791 757.667 438.979 758.738 438.904Z"/><path fill="#CFA648" transform="matrix(1.11816 0 0 1.11816 0 3.05176e-05)" d="M375.813 293.654C434.718 257.441 502.527 245.029 570.162 261.123C614.24 271.78 654.835 293.599 688.043 324.482C686.307 330.202 686.302 331.046 685.911 336.701C685.422 343.795 689.2 365.551 683.441 369.919C650.951 331.158 606.368 304.448 556.863 294.087C509.775 284.138 460.719 290.018 417.316 310.813C405.465 316.432 395.695 322.427 384.687 329.483C383.667 314.256 383.674 307.432 375.813 293.654Z"/><path fill="#CFA648" transform="matrix(1.11816 0 0 1.11816 0 3.05176e-05)" d="M383.064 708.623C428.597 740.492 480.482 755.505 536.08 749.17C594.959 742.545 648.779 712.756 685.656 666.38C688.889 671.111 687.624 679.541 687.12 685.058C686.181 695.329 684.853 705.188 687.809 715.333C637.506 761.785 574.724 786.866 505.615 785.163C470.773 784.303 434.949 776.03 403.568 761.086C399.004 758.913 388.692 753.985 384.773 751.188C383.958 747.986 383.599 741.293 383.45 737.779C383.181 731.451 379.08 713.445 383.064 708.623Z"/></svg>