<?xml version="1.0" encoding="utf-8" ?><svg xmlns="http://www.w3.org/2000/svg" xmlns:xlink="http://www.w3.org/1999/xlink" width="1145" height="1145" viewBox="0 0 1145 1145"><path fill="#F8F8F7" transform="scale(1.11804 1.11804)" d="M0 0L1024 0L1024 1024L0 1024L0 0Z"/><path fill="#F8F8F7" transform="scale(1.11804 1.11804)" d="M402.041 279.589C409.161 275.43 425.803 269.213 433.786 266.697C479.642 251.931 528.736 250.415 575.416 262.323C606.329 270.421 634.524 283.6 660.388 302.246C664.961 305.543 675.455 312.919 679.166 316.932C729.743 358.05 762.871 424.691 769.374 489.157C776.782 562.601 757.799 633.111 710.956 690.634C703.193 700.166 686.64 717.82 676.69 725.026C668.914 732.142 656.552 740.694 647.669 746.257C604.125 773.87 553.144 787.426 501.636 785.087C472.599 783.964 443.966 777.891 416.973 767.131C413.837 765.848 405.769 762.495 403.16 760.837C401.918 760.408 400.794 759.858 399.613 759.274C338.23 728.923 291.018 675.776 268.427 611.348C244.412 542.777 248.325 467.513 279.321 401.802C300.713 357.42 334.182 319.968 375.888 293.74C382.197 289.768 395.105 282.026 402.041 279.589Z"/><defs><linearGradient id="gradient_0" gradientUnits="userSpaceOnUse" x1="253.99265" y1="522.44965" x2="384.92123" y2="522.50189"><stop offset="0" stop-color="#966F1D"/><stop offset="1" stop-color="#CFA647"/></linearGradient></defs><path fill="url(#gradient_0)" transform="scale(1.11804 1.11804)" d="M403.16 760.837C401.918 760.408 400.794 759.858 399.613 759.274C338.23 728.923 291.018 675.776 268.427 611.348C244.412 542.777 248.325 467.513 279.321 401.802C300.713 357.42 334.182 319.968 375.888 293.74C382.197 289.768 395.105 282.026 402.041 279.589L402.723 279.912C397.216 282.697 380.918 290.847 376.563 294.598C376.834 296.4 378.923 296.949 379.113 297.554C381.289 304.456 386.491 321.677 384.699 327.956L384.975 328.34C387.072 326.852 394.565 321.948 396.553 320.988L397.057 321.175L397.109 321.524C385.481 328.885 376.547 334.905 366.021 343.975C328.877 376.418 302.968 419.796 292.013 467.882C278.533 528.271 289.343 591.539 322.11 644.026C346.427 682.125 371.956 703.703 410.599 725.761L409.903 726.072C403.514 723.352 397.85 718.799 391.577 715.78C389.337 714.702 385.254 710.268 382.766 709.656C379.325 711.635 383.704 733.811 383.945 738.369C384.24 743.957 382.572 751.348 389.068 752.911C390.288 753.205 403.679 760.384 403.837 760.678L403.16 760.837Z"/><defs><linearGradient id="gradient_1" gradientUnits="userSpaceOnUse" x1="769.53229" y1="519.93127" x2="684.16699" y2="519.74207"><stop offset="0" stop-color="#8E6A22"/><stop offset="1" stop-color="#DEB658"/></linearGradient></defs><path fill="url(#gradient_1)" transform="scale(1.11804 1.11804)" d="M673.649 358.924L673.943 358.735C678.415 359.76 680.78 369.323 684.543 368.784C687.918 363.933 685.318 340.29 685.43 334.037C685.452 332.8 687.301 325.264 687.55 325.762C685.929 322.526 680.124 320.626 679.166 316.932C729.743 358.05 762.871 424.691 769.374 489.157C776.782 562.601 757.799 633.111 710.956 690.634C703.193 700.166 686.64 717.82 676.69 725.026C677.15 722.53 684.601 717.435 687.258 714.19C682.651 697.415 689.409 683.616 686.673 667.446C684.194 670.079 681.903 672.747 679.538 675.481L678.71 675.32C685.199 666.702 691.08 660.338 697.439 651.001C720.438 617.39 734.116 578.284 737.082 537.666C741.001 486.308 727.875 435.091 699.738 391.949C690.848 378.513 683.909 370.807 673.649 358.924Z"/><path fill="#E8C661" transform="scale(1.11804 1.11804)" d="M686.673 667.446C689.409 683.616 682.651 697.415 687.258 714.19C684.601 717.435 677.15 722.53 676.69 725.026C668.914 732.142 656.552 740.694 647.669 746.257C604.125 773.87 553.144 787.426 501.636 785.087C472.599 783.964 443.966 777.891 416.973 767.131C413.837 765.848 405.769 762.495 403.16 760.837L403.837 760.678C403.679 760.384 390.288 753.205 389.068 752.911C382.572 751.348 384.24 743.957 383.945 738.369C383.704 733.811 379.325 711.635 382.766 709.656C385.254 710.268 389.337 714.702 391.577 715.78C397.85 718.799 403.514 723.352 409.903 726.072L410.599 725.761C416.347 728.22 421.884 731.253 427.986 733.765C452.928 744.033 475.505 749.071 502.325 750.273C555.706 752.516 608.109 735.451 649.933 702.203C657.637 696.094 665.071 689.525 671.799 682.354C673.765 680.258 676.006 677.747 678.107 675.857L678.71 675.32L679.538 675.481C681.903 672.747 684.194 670.079 686.673 667.446Z"/><path fill="#E8C661" transform="scale(1.11804 1.11804)" d="M402.041 279.589C409.161 275.43 425.803 269.213 433.786 266.697C479.642 251.931 528.736 250.415 575.416 262.323C606.329 270.421 634.524 283.6 660.388 302.246C664.961 305.543 675.455 312.919 679.166 316.932C680.124 320.626 685.929 322.526 687.55 325.762C687.301 325.264 685.452 332.8 685.43 334.037C685.318 340.29 687.918 363.933 684.543 368.784C680.78 369.323 678.415 359.76 673.943 358.735L673.649 358.924C645.117 330.21 613.167 309.66 574.01 298.337C527.034 284.345 476.709 286.625 431.191 304.809C418.402 309.904 409.126 314.886 397.109 321.524L397.057 321.175L396.553 320.988C394.565 321.948 387.072 326.852 384.975 328.34L384.699 327.956C386.491 321.677 381.289 304.456 379.113 297.554C378.923 296.949 376.834 296.4 376.563 294.598C380.918 290.847 397.216 282.697 402.723 279.912L402.041 279.589Z"/><defs><linearGradient id="gradient_2" gradientUnits="userSpaceOnUse" x1="695.64581" y1="458.13538" x2="516.77197" y2="494.88629"><stop offset="0" stop-color="#0A0909"/><stop offset="1" stop-color="#353434"/></linearGradient></defs><path fill="url(#gradient_2)" transform="scale(1.11804 1.11804)" d="M597.133 367.829C599.5 373.955 600.273 385.121 600.704 391.64C601.202 399.185 600.286 401.124 603.931 407.937L606.368 402.12C607.032 414.069 603.416 423.67 605.809 435.481C606.725 439.997 606.626 444.925 606.57 449.542L617.574 449.528C617.468 437.633 617.081 437.253 625.492 428.356C625.447 425.545 625.279 423.307 626.276 420.698L626.876 420.692C627.843 422.843 627.663 425.666 627.73 428.117C636.547 439.071 636.275 435.967 635.952 451.506L642.545 451.595C643.953 457.796 644.962 464.08 645.565 470.41C648.704 470.258 651.95 470.387 655.101 470.448L655.058 483.918C662.784 490.357 664.884 489.583 674.487 489.519L674.51 498.797C684.104 508.355 700.301 518.398 711.002 527.184C711.065 541.233 710.952 550.638 709.242 564.479C695.018 564.308 680.585 564.424 666.345 564.419L553.412 564.401C552.989 563.218 552.543 562.044 552.074 560.879C545.904 545.392 537.199 539.093 522.569 532.837C542.871 508.858 557.418 496.144 583.504 478.881C583.497 475.75 582.563 472.511 585.302 470.491C586.96 470.326 586.65 470.624 587.798 469.807C588.688 461.203 587.604 449.985 588.015 441.061C588.212 436.765 589.643 427.573 589.341 424.194C588.522 415.053 587.593 411.512 588.075 402.205L590.493 407.811C594.404 400.659 593.036 396.679 593.685 388.763C594.331 381.711 595.484 374.715 597.133 367.829Z"/><defs><linearGradient id="gradient_3" gradientUnits="userSpaceOnUse" x1="612.48401" y1="659.49182" x2="536.32068" y2="507.10358"><stop offset="0" stop-color="#0A0909"/><stop offset="1" stop-color="#373737"/></linearGradient></defs><path fill="url(#gradient_3)" transform="scale(1.11804 1.11804)" d="M478.637 538.192C481.511 538.591 485.16 540.527 488.155 541.432C499.229 544.778 506.629 541.909 516.775 538.129C537.455 541.96 542.597 553.714 549.349 571.487L708.207 571.488C706.089 585.738 698.847 609.579 691.654 622.069C691.528 612.097 693.614 596.107 687.136 589.356C684.098 586.186 679.889 584.406 675.498 584.435C671.466 584.44 667.602 586.045 664.752 588.897C657.739 596.059 660.134 619.927 660.131 629.999L639.981 629.992L639.976 621.054C639.888 611.491 641.913 596.394 635.839 589.64C632.916 586.442 628.831 584.551 624.501 584.392C620.118 584.193 615.844 585.796 612.673 588.828C610.754 590.689 609.386 593.043 608.718 595.632C607.471 600.463 608.015 623.463 608.034 629.971L587.691 629.943C587.638 618.022 590.25 597.442 583.045 588.56C576.131 580.038 558.483 584.524 557.053 594.815C555.629 605.065 556.452 619.455 556.453 629.981L458.817 630.014L458.767 595.626C458.772 576.685 459.952 571.021 451.361 553.622C451.82 553.019 452.288 552.423 452.766 551.835C459.448 543.619 468.221 539.306 478.637 538.192Z"/><path fill="#F8F8F7" transform="scale(1.11804 1.11804)" d="M518.91 564.646C526.044 557.209 537.003 558.828 537.075 570.316C537.108 575.717 530.956 580.757 527.133 584.173L519.127 592.107C510.992 584.754 489.151 568.014 509.182 560.016C509.934 560.011 510.687 560.028 511.439 560.068C515.022 560.294 516.681 562.098 518.91 564.646Z"/><path fill="#181717" transform="scale(1.11804 1.11804)" d="M373.219 536.255C386.063 542.205 395.043 541.637 407.97 536.561C415.61 545.507 416.512 552.451 416.475 563.755C409.895 568.384 405.32 575.984 413.33 581.993C415.791 583.866 418.924 584.623 421.969 584.081C428.068 582.983 430.409 577.324 429.258 571.589C428.498 567.803 425.471 565.928 422.463 563.96C422.218 551.451 421.3 548.078 415.513 537.065C425.394 539.016 433.235 542.101 440.514 549.353C454.808 563.595 453.043 580.754 452.992 599.198L452.98 629.993L381.131 630.016L338.362 629.965C330.119 615.899 328.307 612.246 328.859 595.968C329.343 581.688 327.232 570.032 335.638 557.056C343.445 545.005 352.244 540.188 365.909 537.072C359.986 547.019 358.94 551.605 358.862 562.988C353.336 564.95 348.897 567.932 347.855 574.243C347.237 577.982 345.525 587.644 351.185 588.154C355.092 584.199 348.253 568.174 362.248 568.365C375.021 568.54 369.108 583.914 373.301 588.075L374.393 588.002C374.961 587.613 376.066 587.081 376.158 586.468C378.021 574.027 376.199 566.723 364.416 562.882C364.472 552.002 366.432 544.939 373.219 536.255Z"/><defs><linearGradient id="gradient_4" gradientUnits="userSpaceOnUse" x1="404.465" y1="378.57703" x2="474.54184" y2="461.34052"><stop offset="0" stop-color="#121111"/><stop offset="1" stop-color="#2E2E2E"/></linearGradient></defs><path fill="url(#gradient_4)" transform="scale(1.11804 1.11804)" d="M420.667 364.081C431.354 363.713 442.087 364.009 452.79 363.701C455.701 363.618 458.604 363.516 460.775 365.778C463.995 369.135 462.536 392.442 462.541 398.488C468.958 398.49 488.667 397.683 493.154 399.408C496.649 403.882 496.434 435.112 494.086 440.388C490.492 443.668 468.279 442.391 462.553 442.376C462.402 451.936 463.148 462.68 462.232 472.188C462.046 474.121 460.781 474.947 459.284 475.973C448.011 476.336 436.691 475.897 425.412 476.277C416.554 476.575 417.498 471.023 417.447 464.09C417.394 456.877 417.502 449.635 417.55 442.422C409.232 442.253 393.438 443.654 386.471 440.963C383.393 439.775 383.468 402.505 385.92 400.237C386.878 399.351 388.067 398.753 389.35 398.512C391.893 398.03 413.777 398.404 417.519 398.413C417.472 388.719 416.918 377.408 417.756 367.733C417.92 365.843 419.186 365.052 420.667 364.081Z"/><path fill="#181717" transform="scale(1.11804 1.11804)" d="M385.335 471.489C402.153 468.397 418.278 479.57 421.289 496.402C424.301 513.234 413.05 529.306 396.204 532.236C379.471 535.147 363.533 523.989 360.542 507.271C357.551 490.553 368.632 474.561 385.335 471.489Z"/><path fill="#3A3A3A" transform="scale(1.11804 1.11804)" d="M492.593 474.763C508.904 471.598 524.699 482.23 527.907 498.532C531.116 514.834 520.526 530.658 504.233 533.909C487.878 537.173 471.982 526.535 468.761 510.171C465.541 493.808 476.221 477.94 492.593 474.763Z"/><path fill="#181717" transform="scale(1.11804 1.11804)" d="M458.568 645.679C479.815 642.887 488.971 651.989 508.187 654.086C525.381 655.962 538.099 646.315 555.301 645.543C571.421 644.82 576.949 648.645 591.673 652.414C603.495 655.439 615.856 652.703 627.276 649.374C617.187 660.616 606.464 665.304 591.388 663.102C583.004 661.878 575.238 658.549 567.098 657.255L566.412 657.15C546.334 654.013 535.595 664.323 515.569 665.423C499.916 667.638 483.319 656.512 468.892 656.472C439.151 656.391 424.353 676.37 398.475 648.965C413.631 653.199 424.182 655.67 439.625 650.495C445.613 648.489 452.323 646.46 458.568 645.679Z"/><path fill="#181717" transform="scale(1.11804 1.11804)" d="M461.349 671.696C481.226 669.555 489.654 678.199 508.135 680.063C527.456 682.011 537.987 671.893 556.934 671.567C575.689 671.245 583.111 679.977 601.731 678.89L601.268 679.224C588.935 687.97 579.728 685.264 566.006 682.943C549.529 681.249 538.932 687.127 523.521 690.666C503.684 695.221 488.986 684.705 471.119 682.584C452.224 680.341 442.626 691.753 424.142 678.521C442.419 678.89 445.59 673.183 461.349 671.696Z"/><path fill="#181717" transform="scale(1.11804 1.11804)" d="M418.894 569.828C421.26 569.492 423.458 571.12 423.827 573.481C424.195 575.843 422.599 578.063 420.242 578.465C418.688 578.73 417.112 578.137 416.117 576.915C415.122 575.692 414.863 574.029 415.438 572.561C416.013 571.094 417.333 570.049 418.894 569.828Z"/></svg>